<?xml version="1.0" standalone="no"?>
<!DOCTYPE svg PUBLIC "-//W3C//DTD SVG 20010904//EN"
 "http://www.w3.org/TR/2001/REC-SVG-20010904/DTD/svg10.dtd">
<svg version="1.0" xmlns="http://www.w3.org/2000/svg"
 width="400.000000pt" height="400.000000pt" viewBox="0 0 400.000000 400.000000"
 preserveAspectRatio="xMidYMid meet">

<g transform="translate(0.000000,400.000000) scale(0.100000,-0.100000)"
fill="#000000" stroke="none">
<path d="M1428 3946 c-119 -72 -244 -211 -312 -346 -28 -53 -113 -262 -186
-450 -28 -74 -58 -148 -66 -165 -36 -75 -96 -180 -105 -183 -5 -2 -9 -9 -9
-15 0 -7 -10 -17 -22 -22 -12 -6 -24 -17 -26 -25 -3 -9 2 -7 12 5 8 11 16 16
16 11 0 -4 -11 -21 -24 -37 -17 -20 -27 -25 -32 -17 -5 7 -15 2 -31 -18 -21
-27 -23 -27 -23 -7 0 12 7 29 16 38 9 9 13 19 10 23 -4 3 -20 -8 -37 -26 -30
-31 -47 -42 -34 -21 4 6 -2 5 -13 -2 -18 -11 -33 -7 -114 33 -126 62 -239 91
-304 79 -27 -5 -70 -8 -96 -6 l-48 4 0 -1400 0 -1399 1925 0 1925 0 6 27 c3
16 9 37 14 48 7 16 9 11 9 -22 1 -23 6 -45 11 -48 7 -5 9 9 5 42 -3 26 -8 91
-10 143 -2 52 -7 128 -12 168 -10 79 0 96 17 30 6 -24 25 -82 42 -130 17 -49
38 -118 48 -155 14 -52 18 -61 19 -36 1 18 -11 67 -25 110 -14 43 -31 105 -39
138 -8 33 -23 87 -34 120 -11 33 -21 75 -21 94 0 18 -7 60 -15 92 -9 33 -13
65 -9 71 4 7 3 8 -4 4 -8 -5 -12 3 -11 26 3 48 -21 180 -35 203 -7 11 -19 45
-26 75 -8 30 -18 61 -23 67 -5 7 -7 20 -3 28 3 8 1 15 -4 15 -5 0 -12 20 -16
45 -3 26 -13 49 -23 55 -9 5 -12 10 -7 10 5 0 2 8 -5 17 -10 11 -10 14 -1 9
18 -11 15 10 -5 29 -9 10 -17 24 -18 34 -1 9 -6 25 -12 36 -6 11 -16 52 -23
90 -15 79 -59 188 -119 294 -51 91 -82 161 -76 171 3 5 0 12 -6 16 -8 5 -9 3
-4 -7 5 -9 5 -11 -2 -4 -5 6 -19 33 -30 62 -12 28 -46 89 -77 135 -31 47 -56
88 -56 92 0 5 -13 25 -30 46 -16 21 -30 43 -30 48 0 6 -6 17 -12 24 -17 18
-36 48 -47 75 -6 11 -14 24 -20 27 -13 9 34 -84 76 -149 37 -55 44 -84 12 -45
-12 14 -35 41 -52 61 -54 62 -92 110 -92 117 -2 22 -18 51 -26 47 -5 -3 -6 1
-3 9 3 8 -2 25 -10 39 -9 13 -30 61 -46 106 -17 45 -42 109 -56 143 -20 47
-23 63 -13 69 20 12 28 2 35 -42 4 -21 11 -39 16 -39 5 0 7 -4 4 -9 -3 -5 27
-73 66 -152 42 -83 74 -136 76 -126 2 9 8 14 14 11 7 -4 8 -2 4 5 -4 6 -12 8
-18 5 -7 -5 -9 -1 -5 9 3 9 2 19 -4 22 -11 8 -129 246 -129 263 0 6 -12 37
-27 69 -15 32 -27 63 -28 68 -3 32 -42 124 -67 161 -34 50 -78 154 -78 183 0
33 -48 175 -89 263 -65 142 -153 265 -295 414 l-80 84 -400 0 -401 0 -87 -54z
m762 -648 c43 -13 164 -63 205 -85 45 -24 88 -62 108 -95 9 -16 21 -26 27 -23
11 7 53 -64 70 -118 15 -49 -3 -413 -26 -502 -34 -133 -87 -278 -120 -326 -19
-28 -34 -53 -34 -56 0 -3 16 -27 35 -53 22 -30 35 -59 35 -79 0 -64 -100 -182
-223 -265 -64 -42 -86 -41 -187 5 -55 26 -67 35 -59 46 7 7 21 13 32 13 13 0
17 4 11 9 -17 16 -103 31 -181 32 l-78 0 43 20 c24 10 41 23 37 29 -4 6 13 19
39 30 27 13 63 42 92 75 43 51 49 55 91 55 24 0 60 -7 80 -15 19 -8 51 -15 69
-15 27 0 34 4 34 19 0 48 -54 141 -82 141 -10 0 -33 14 -53 31 -41 36 -47 77
-15 109 11 11 20 31 20 45 l0 25 49 -24 c26 -14 62 -37 79 -51 l31 -26 6 34
c4 19 3 95 -2 171 -7 125 -7 137 9 142 24 7 23 24 -2 24 -15 0 -20 7 -20 25 0
38 2 40 40 39 19 -1 29 1 23 3 -18 6 -16 20 3 27 10 4 21 0 28 -10 10 -13 19
-14 49 -6 33 9 75 38 66 46 -18 16 -74 35 -121 40 -96 12 -86 29 25 42 31 3
57 11 57 16 0 5 15 9 33 8 69 -4 73 9 9 36 -46 20 -106 14 -222 -21 l-85 -26
-95 21 c-52 12 -103 24 -113 26 -9 3 -35 32 -57 64 -22 32 -49 61 -60 65 -11
3 -25 15 -31 26 -5 11 -15 17 -21 13 -5 -4 -14 -1 -18 7 -7 10 -11 10 -24 -1
-9 -7 -19 -10 -22 -7 -3 3 4 10 15 17 12 6 21 17 21 25 0 8 5 15 11 15 6 0 8
9 4 20 -4 12 -2 20 5 20 6 0 10 6 7 13 -2 6 10 20 27 29 30 17 30 17 6 18 -22
1 -23 2 -7 11 9 5 17 15 17 22 0 15 118 70 135 63 8 -3 26 -1 42 3 31 9 79 5
133 -11z m702 -366 c21 -47 19 -59 -9 -47 -11 4 -13 9 -7 12 13 4 7 43 -6 43
-7 0 -40 83 -40 99 0 10 43 -63 62 -107z m-1275 -70 c-13 -14 -14 -21 -5 -30
9 -9 8 -12 -4 -12 -24 0 -32 32 -12 47 26 19 40 16 21 -5z m33 -2 c0 -5 -5
-10 -11 -10 -5 0 -7 5 -4 10 3 6 8 10 11 10 2 0 4 -4 4 -10z m60 -32 c0 -4 -4
-8 -10 -8 -5 0 -10 7 -10 15 0 8 -5 15 -11 15 -6 0 -9 -7 -5 -15 5 -15 -5 -20
-17 -8 -4 3 1 15 10 25 16 18 18 18 30 2 7 -10 13 -21 13 -26z m50 11 c0 -24
-20 -25 -21 -1 0 15 -1 14 -8 -2 -7 -19 -8 -19 -13 1 -7 27 -2 32 23 26 10 -3
19 -14 19 -24z m52 -11 c-9 -9 -12 -8 -12 5 0 9 -4 17 -10 17 -5 0 -7 -7 -4
-15 4 -8 1 -15 -5 -15 -15 0 -14 37 2 43 6 3 19 -2 27 -9 11 -11 12 -16 2 -26z
m1118 7 c0 -5 -5 -3 -10 5 -5 8 -10 20 -10 25 0 6 5 3 10 -5 5 -8 10 -19 10
-25z m-1060 1 c0 -19 -4 -23 -19 -19 -11 3 -21 13 -24 24 -4 15 0 19 19 19 19
0 24 -5 24 -24z m-867 -106 c7 -27 67 -29 67 -3 0 16 1 16 17 0 16 -16 16 -20
3 -45 -21 -36 -54 -50 -145 -62 -57 -7 -91 -18 -126 -40 -27 -16 -54 -30 -59
-30 -6 0 -10 -5 -10 -11 0 -5 5 -7 11 -3 7 4 10 0 7 -11 -3 -18 -8 -22 -70
-48 l-36 -16 -6 52 c-3 29 -8 73 -12 98 -7 56 -5 57 110 98 50 17 92 34 95 36
2 3 37 5 77 5 63 0 72 -2 77 -20z m1247 -79 c0 -11 -39 -41 -54 -41 -20 0 -28
28 -11 37 18 10 65 13 65 4z m-90 -21 c0 -11 -4 -20 -10 -20 -5 0 -10 9 -10
20 0 11 5 20 10 20 6 0 10 -9 10 -20z m100 -9 c0 -5 -7 -11 -15 -15 -15 -5
-20 5 -8 17 9 10 23 9 23 -2z m-1150 -5 c0 -2 -7 -7 -16 -10 -8 -3 -12 -2 -9
4 6 10 25 14 25 6z m-2 -86 c65 -14 102 -43 102 -78 0 -15 -4 -32 -8 -38 -12
-20 -105 -42 -162 -38 l-55 4 65 -15 c36 -8 77 -20 92 -26 l26 -11 -36 -32
c-45 -40 -85 -61 -135 -70 -41 -8 -142 -89 -142 -115 -1 -9 -4 -22 -9 -29 -5
-8 9 -5 34 8 33 17 45 19 54 9 8 -9 8 -10 -1 -5 -8 4 -8 0 0 -19 7 -14 20 -28
30 -31 26 -8 21 -41 -13 -77 -18 -19 -37 -55 -46 -87 -23 -82 -32 -100 -51
-100 -15 0 -16 -2 -3 -10 13 -9 13 -12 -2 -21 -10 -5 -18 -17 -18 -24 0 -11
-11 -15 -37 -15 -28 0 -34 3 -23 10 12 8 12 10 1 10 -9 0 -12 8 -8 27 4 19 -3
36 -24 62 -40 51 -60 104 -53 141 6 25 2 34 -17 48 -13 9 -33 16 -44 17 -23 0
-32 30 -15 50 7 8 29 15 49 15 50 1 107 44 139 105 15 28 31 53 36 56 5 4 6
11 2 17 -8 13 20 36 33 28 6 -4 19 12 30 35 l20 41 -26 -7 c-15 -3 -39 -15
-54 -26 -15 -10 -32 -19 -38 -19 -19 0 -12 42 13 75 17 22 26 48 28 81 3 46 5
50 38 62 38 13 143 10 228 -8z m2212 -453 c0 -4 11 -25 25 -47 14 -22 25 -43
25 -46 0 -13 -40 44 -70 102 -30 54 -30 57 -6 29 14 -16 25 -33 26 -38z m74
-152 c3 -8 1 -15 -4 -15 -6 0 -10 7 -10 15 0 8 2 15 4 15 2 0 6 -7 10 -15z
m-750 -86 c25 -29 36 -89 17 -89 -11 0 -21 25 -21 56 0 13 -9 33 -20 44 -11
11 -16 20 -11 20 5 0 21 -14 35 -31z m-919 -133 c48 -21 36 -36 -28 -36 -48 0
-97 19 -97 38 0 14 90 12 125 -2z m995 -36 c0 -5 -2 -10 -4 -10 -3 0 -8 5 -11
10 -3 6 -1 10 4 10 6 0 11 -4 11 -10z m-8 -100 c4 0 8 -8 8 -17 -1 -11 -10 -3
-25 22 -14 22 -25 45 -24 50 0 6 8 -5 16 -22 9 -18 20 -33 25 -33z m-22 -74
c0 -3 -4 -8 -10 -11 -5 -3 -10 -1 -10 4 0 6 5 11 10 11 6 0 10 -2 10 -4z m28
-111 c6 -14 10 -25 8 -25 -2 0 -11 11 -20 25 -9 14 -13 25 -8 25 5 0 14 -11
20 -25z m-7 -52 c13 -16 12 -17 -3 -4 -17 13 -22 21 -14 21 2 0 10 -8 17 -17z
m122 -290 c-7 -2 -21 -2 -30 0 -10 3 -4 5 12 5 17 0 24 -2 18 -5z m52 -53 c3
-5 2 -10 -4 -10 -5 0 -13 5 -16 10 -3 6 -2 10 4 10 5 0 13 -4 16 -10z m-70
-50 c3 -6 -1 -7 -9 -4 -18 7 -21 14 -7 14 6 0 13 -4 16 -10z m0 -110 c3 -5 1
-10 -4 -10 -6 0 -11 5 -11 10 0 6 2 10 4 10 3 0 8 -4 11 -10z m25 -30 c0 -5
-4 -10 -10 -10 -5 0 -10 5 -10 10 0 6 5 10 10 10 6 0 10 -4 10 -10z m50 -70
c0 -5 -5 -10 -11 -10 -5 0 -7 5 -4 10 3 6 8 10 11 10 2 0 4 -4 4 -10z m-240
-144 c0 -3 -4 -8 -10 -11 -5 -3 -10 -1 -10 4 0 6 5 11 10 11 6 0 10 -2 10 -4z
m1207 -53 c-3 -10 -5 -2 -5 17 0 19 2 27 5 18 2 -10 2 -26 0 -35z m-927 27 c0
-5 -5 -10 -11 -10 -5 0 -7 5 -4 10 3 6 8 10 11 10 2 0 4 -4 4 -10z m-260 -20
c0 -5 -2 -10 -4 -10 -3 0 -8 5 -11 10 -3 6 -1 10 4 10 6 0 11 -4 11 -10z m178
-18 c2 -7 -2 -10 -12 -6 -9 3 -16 11 -16 16 0 13 23 5 28 -10z m152 8 c0 -5
-4 -10 -10 -10 -5 0 -10 5 -10 10 0 6 5 10 10 10 6 0 10 -4 10 -10z m-65 -108
c-3 -3 -11 0 -18 7 -9 10 -8 11 6 5 10 -3 15 -9 12 -12z m764 -269 c0 -25 -1
-25 -8 -8 -5 11 -7 23 -4 28 8 14 13 7 12 -20z"/>
<path d="M2347 2263 c-2 -21 -2 -42 1 -48 8 -14 30 45 24 67 -7 30 -19 21 -25
-19z"/>
<path d="M1025 2690 c3 -5 12 -7 20 -3 21 7 19 13 -6 13 -11 0 -18 -4 -14 -10z"/>
<path d="M2190 2630 c0 -5 5 -10 10 -10 6 0 10 5 10 10 0 6 -4 10 -10 10 -5 0
-10 -4 -10 -10z"/>
<path d="M3340 2111 c0 -6 4 -13 10 -16 6 -3 7 1 4 9 -7 18 -14 21 -14 7z"/>
<path d="M3375 2085 c4 -11 8 -27 8 -35 0 -8 7 -24 15 -35 l14 -20 -7 20 c-4
11 -8 30 -10 43 -1 13 -8 29 -15 35 -10 10 -11 8 -5 -8z"/>
</g>
</svg>
